{
.appVersion = "3436";
.formatVersion = 3;
DisplayStrings = (
"240",
"‘’",
"A||B",
"+×.÷-"
);
customParameters = (
{
name = "Use Typo Metrics";
value = 1;
}
);
date = "2025-12-20 23:24:10 +0000";
familyName = Arcadia;
featurePrefixes = (
{
automatic = 1;
code = "languagesystem DFLT dflt;
";
name = Languagesystems;
}
);
features = (
{
code = "";
tag = zero;
},
{
code = "";
tag = tnum;
}
);
fontMaster = (
{
customParameters = (
{
name = typoAscender;
value = 800;
},
{
name = typoDescender;
value = -200;
},
{
name = typoLineGap;
value = 0;
},
{
name = hheaAscender;
value = 800;
},
{
name = hheaDescender;
value = -200;
},
{
name = winAscent;
value = 800;
},
{
name = winDescent;
value = 200;
},
{
name = hheaLineGap;
value = 0;
},
{
name = "Link Metrics With First Master";
value = 1;
}
);
id = m01;
metricValues = (
{
over = 16;
pos = 800;
},
{
over = 16;
pos = 600;
},
{
over = 16;
pos = 430;
},
{
over = -16;
},
{
over = -16;
pos = -200;
},
{
}
);
name = Regular;
stemValues = (
60,
60
);
userData = {
GSCornerRadius = 30;
};
}
);
glyphs = (
{
glyphname = A;
kernLeft = A;
kernRight = A;
lastChange = "2025-12-25 02:39:03 +0000";
layers = (
{
layerId = m01;
shapes = (
{
closed = 1;
nodes = (
(77,0,l),
(271,527,l),
(465,0,l),
(527,0,l),
(306,600,l),
(236,600,l),
(15,0,l)
);
},
{
closed = 1;
nodes = (
(436,205,l),
(416,261,l),
(126,261,l),
(106,205,l)
);
}
);
width = 542;
}
);
unicode = 65;
},
{
glyphname = B;
kernLeft = H;
kernRight = B;
lastChange = "2025-12-27 14:29:16 +0000";
layers = (
{
layerId = m01;
shapes = (
{
closed = 1;
nodes = (
(317,272,ls),
(342,272,o),
(363,280,o),
(383,296,cs),
(401,310,o),
(417,326,o),
(431,344,cs),
(447,364,o),
(455,384,o),
(455,410,cs),
(455,462,ls),
(455,488,o),
(447,508,o),
(431,528,cs),
(417,546,o),
(401,562,o),
(383,576,cs),
(363,592,o),
(342,600,o),
(317,600,cs),
(65,600,l),
(65,272,l)
);
},
{
closed = 1;
nodes = (
(312,544,ls),
(326,544,o),
(336,541,o),
(347,531,cs),
(360,519,o),
(372,507,o),
(384,494,cs),
(394,483,o),
(397,473,o),
(397,459,cs),
(397,413,ls),
(397,399,o),
(393,389,o),
(384,378,cs),
(372,365,o),
(360,353,o),
(347,341,cs),
(336,331,o),
(326,328,o),
(312,328,cs),
(123,328,l),
(123,544,l)
);
},
{
closed = 1;
nodes = (
(317,0,ls),
(342,0,o),
(363,8,o),
(383,24,cs),
(401,38,o),
(417,54,o),
(431,72,cs),
(447,92,o),
(455,112,o),
(455,138,cs),
(455,190,ls),
(455,216,o),
(447,236,o),
(431,256,cs),
(417,274,o),
(401,290,o),
(383,304,cs),
(363,320,o),
(342,328,o),
(317,328,cs),
(65,328,l),
(65,0,l)
);
},
{
closed = 1;
nodes = (
(312,272,ls),
(326,272,o),
(336,269,o),
(347,259,cs),
(360,247,o),
(372,235,o),
(384,222,cs),
(394,211,o),
(397,201,o),
(397,187,cs),
(397,141,ls),
(397,127,o),
(393,117,o),
(384,106,cs),
(372,93,o),
(360,81,o),
(347,69,cs),
(336,59,o),
(326,56,o),
(312,56,cs),
(123,56,l),
(123,272,l)
);
}
);
width = 515;
}
);
metricLeft = H;
unicode = 66;
},
{
glyphname = C;
kernLeft = O;
kernRight = C;
lastChange = "2025-12-27 14:42:46 +0000";
layers = (
{
layerId = m01;
shapes = (
{
closed = 1;
nodes = (
(337,-5,ls),
(362,-5,o),
(383,3,o),
(403,19,cs),
(421,33,o),
(437,49,o),
(451,67,cs),
(467,87,o),
(475,107,o),
(475,133,cs),
(475,467,ls),
(475,493,o),
(467,513,o),
(451,533,cs),
(437,551,o),
(421,567,o),
(403,581,cs),
(383,597,o),
(362,605,o),
(337,605,cs),
(203,605,ls),
(178,605,o),
(158,596,o),
(138,580,cs),
(120,566,o),
(104,550,o),
(90,532,cs),
(74,512,o),
(65,493,o),
(65,467,cs),
(65,133,ls),
(65,107,o),
(73,87,o),
(89,67,cs),
(103,49,o),
(119,33,o),
(137,19,cs),
(157,3,o),
(178,-5,o),
(203,-5,cs)
);
},
{
closed = 1;
nodes = (
(332,549,ls),
(346,549,o),
(356,546,o),
(367,536,cs),
(380,524,o),
(392,512,o),
(404,499,cs),
(414,488,o),
(417,478,o),
(417,464,cs),
(417,136,ls),
(417,122,o),
(413,112,o),
(404,101,cs),
(392,88,o),
(380,76,o),
(367,64,cs),
(356,54,o),
(346,51,o),
(332,51,cs),
(208,51,ls),
(194,51,o),
(184,54,o),
(173,64,cs),
(160,76,o),
(148,88,o),
(136,101,cs),
(126,112,o),
(123,122,o),
(123,136,cs),
(123,464,ls),
(123,478,o),
(127,488,o),
(136,499,cs),
(148,512,o),
(160,524,o),
(173,536,cs),
(184,546,o),
(194,549,o),
(208,549,cs)
);
},
{
attr = {
mask = 1;
};
closed = 1;
nodes = (
(498,69,l),
(498,530,l),
(324,476,l),
(324,123,l)
);
}
);
width = 481;
}
);
unicode = 67;
},
{
glyphname = D;
kernLeft = H;
kernRight = O;
lastChange = "2025-12-27 14:42:51 +0000";
layers = (
{
layerId = m01;
shapes = (
{
closed = 1;
nodes = (
(323,-1,ls),
(348,-1,o),
(369,7,o),
(389,23,cs),
(407,37,o),
(423,53,o),
(437,71,cs),
(453,91,o),
(461,111,o),
(461,137,cs),
(461,463,ls),
(461,489,o),
(453,509,o),
(437,529,cs),
(423,547,o),
(407,563,o),
(389,577,cs),
(369,593,o),
(348,601,o),
(323,601,cs),
(65,601,l),
(65,-1,l)
);
},
{
closed = 1;
nodes = (
(123,545,l),
(318,545,ls),
(332,545,o),
(342,542,o),
(353,532,cs),
(390,495,ls),
(400,484,o),
(403,474,o),
(403,460,cs),
(403,140,ls),
(403,126,o),
(399,116,o),
(390,105,c),
(353,68,ls),
(342,58,o),
(332,55,o),
(318,55,cs),
(123,55,l)
);
}
);
width = 526;
}
);
metricLeft = H;
metricRight = O;
unicode = 68;
},
{
glyphname = E;
kernLeft = H;
kernRight = E;
lastChange = "2025-12-27 14:29:38 +0000";
layers = (
{
layerId = m01;
shapes = (
{
closed = 1;
nodes = (
(435,544,l),
(435,600,l),
(85,600,l),
(85,544,l)
);
},
{
closed = 1;
nodes = (
(123,0,l),
(123,600,l),
(65,600,l),
(65,0,l)
);
},
{
closed = 1;
nodes = (
(435,0,l),
(435,56,l),
(85,56,l),
(85,0,l)
);
},
{
closed = 1;
nodes = (
(415,272,l),
(415,328,l),
(85,328,l),
(85,272,l)
);
}
);
width = 480;
}
);
metricLeft = H;
unicode = 69;
},
{
glyphname = F;
kernLeft = H;
kernRight = F;
lastChange = "2025-12-27 14:29:31 +0000";
layers = (
{
layerId = m01;
shapes = (
{
closed = 1;
nodes = (
(425,544,l),
(425,600,l),
(85,600,l),
(85,544,l)
);
},
{
closed = 1;
nodes = (
(123,0,l),
(123,600,l),
(65,600,l),
(65,0,l)
);
},
{
closed = 1;
nodes = (
(405,272,l),
(405,328,l),
(85,328,l),
(85,272,l)
);
}
);
width = 470;
}
);
metricLeft = E;
metricRight = E;
unicode = 70;
},
{
glyphname = G;
kernLeft = O;
kernRight = G;
lastChange = "2025-12-27 14:42:57 +0000";
layers = (
{
layerId = m01;
shapes = (
{
closed = 1;
nodes = (
(481,523,l),
(464,544,o),
(444,564,o),
(423,581,cs),
(403,597,o),
(382,605,o),
(357,605,cs),
(203,605,ls),
(178,605,o),
(158,596,o),
(138,580,cs),
(120,566,o),
(104,550,o),
(90,532,cs),
(74,512,o),
(65,493,o),
(65,467,cs),
(65,133,ls),
(65,107,o),
(73,87,o),
(89,67,cs),
(103,49,o),
(119,33,o),
(137,19,cs),
(157,3,o),
(178,-5,o),
(203,-5,cs),
(347,-5,ls),
(372,-5,o),
(393,3,o),
(413,19,cs),
(431,33,o),
(447,49,o),
(461,67,cs),
(477,87,o),
(485,107,o),
(485,133,cs),
(485,318,l),
(295,318,l),
(295,262,l),
(427,262,l),
(427,136,ls),
(427,122,o),
(423,112,o),
(414,101,c),
(377,64,ls),
(366,54,o),
(356,51,o),
(342,51,cs),
(208,51,ls),
(194,51,o),
(184,54,o),
(173,64,cs),
(136,101,ls),
(126,112,o),
(123,122,o),
(123,136,cs),
(123,464,ls),
(123,478,o),
(127,488,o),
(136,499,c),
(173,536,ls),
(184,546,o),
(194,549,o),
(208,549,cs),
(352,549,ls),
(366,549,o),
(375,545,o),
(387,536,cs),
(401,525,o),
(412,514,o),
(424,499,c)
);
}
);
width = 550;
}
);
metricLeft = C;
unicode = 71;
},
{
glyphname = H;
kernLeft = H;
kernRight = H;
lastChange = "2025-12-27 14:30:14 +0000";
layers = (
{
layerId = m01;
shapes = (
{
closed = 1;
nodes = (
(455,272,l),
(455,328,l),
(85,328,l),
(85,272,l)
);
},
{
closed = 1;
nodes = (
(475,0,l),
(475,600,l),
(417,600,l),
(417,0,l)
);
},
{
closed = 1;
nodes = (
(123,0,l),
(123,600,l),
(65,600,l),
(65,0,l)
);
}
);
width = 540;
}
);
unicode = 72;
},
{
glyphname = I;
kernLeft = H;
kernRight = H;
lastChange = "2025-12-25 01:30:48 +0000";
layers = (
{
layerId = m01;
shapes = (
{
closed = 1;
nodes = (
(123,0,l),
(123,600,l),
(65,600,l),
(65,0,l)
);
}
);
width = 188;
}
);
metricLeft = H;
metricRight = H;
unicode = 73;
},
{
glyphname = J;
kernLeft = J;
kernRight = U;
lastChange = "2025-12-27 14:43:12 +0000";
layers = (
{
layerId = m01;
shapes = (
{
closed = 1;
nodes = (
(348,600,l),
(348,136,ls),
(348,122,o),
(344,112,o),
(335,101,cs),
(323,88,o),
(311,76,o),
(298,64,cs),
(287,54,o),
(277,51,o),
(263,51,cs),
(159,51,ls),
(145,51,o),
(135,54,o),
(124,64,cs),
(111,76,o),
(92,95,o),
(80,108,c),
(30,77,l),
(44,59,o),
(70,33,o),
(88,19,cs),
(108,3,o),
(129,-5,o),
(154,-5,cs),
(268,-5,ls),
(293,-5,o),
(314,3,o),
(334,19,cs),
(352,33,o),
(368,49,o),
(382,67,cs),
(398,87,o),
(406,107,o),
(406,133,cs),
(406,600,l)
);
}
);
width = 471;
}
);
metricRight = U;
unicode = 74;
},
{
glyphname = K;
kernLeft = H;
kernRight = K;
lastChange = "2025-12-27 14:41:51 +0000";
layers = (
{
hints = (
{
origin = (1,2);
target = (1,1);
type = Stem;
}
);
layerId = m01;
shapes = (
{
closed = 1;
nodes = (
(104,272,l),
(144,272,l),
(360,0,l),
(434,0,l),
(196,300,l),
(419,600,l),
(345,600,l),
(144,328,l),
(104,328,l)
);
},
{
closed = 1;
nodes = (
(65,600,l),
(65,0,l),
(123,0,l),
(123,600,l)
);
}
);
width = 460;
}
);
metricLeft = H;
unicode = 75;
},
{
glyphname = L;
kernLeft = H;
kernRight = L;
lastChange = "2025-12-25 01:30:37 +0000";
layers = (
{
layerId = m01;
shapes = (
{
closed = 1;
nodes = (
(435,0,l),
(435,56,l),
(85,56,l),
(85,0,l)
);
},
{
closed = 1;
nodes = (
(123,0,l),
(123,600,l),
(65,600,l),
(65,0,l)
);
}
);
width = 475;
}
);
metricLeft = H;
unicode = 76;
},
{
glyphname = M;
kernLeft = H;
kernRight = H;
lastChange = "2025-12-27 14:43:19 +0000";
layers = (
{
layerId = m01;
shapes = (
{
closed = 1;
nodes = (
(123,0,l),
(123,487,l),
(265,220,l),
(325,220,l),
(467,487,l),
(467,0,l),
(525,0,l),
(525,600,l),
(461,600,l),
(295,285,l),
(129,600,l),
(65,600,l),
(65,0,l)
);
}
);
width = 590;
}
);
metricLeft = H;
metricRight = H;
unicode = 77;
},
{
glyphname = N;
kernLeft = H;
kernRight = H;
lastChange = "2025-12-27 14:43:22 +0000";
layers = (
{
layerId = m01;
shapes = (
{
closed = 1;
nodes = (
(123,0,l),
(123,500,l),
(429,0,l),
(495,0,l),
(495,600,l),
(437,600,l),
(437,100,l),
(131,600,l),
(65,600,l),
(65,0,l)
);
}
);
width = 560;
}
);
metricLeft = M;
metricRight = M;
unicode = 78;
},
{
glyphname = O;
kernLeft = O;
kernRight = O;
lastChange = "2025-12-23 06:26:30 +0000";
layers = (
{
hints = (
{
origin = (0,30);
target = (1,29);
type = Stem;
},
{
origin = (1,10);
target = (0,9);
type = Stem;
},
{
horizontal = 1;
origin = (0,0);
target = (1,19);
type = Stem;
},
{
horizontal = 1;
origin = (0,19);
target = (1,0);
type = Stem;
}
);
layerId = m01;
shapes = (
{
closed = 1;
nodes = (
(347,-5,ls),
(372,-5,o),
(393,3,o),
(413,19,cs),
(431,33,o),
(447,49,o),
(461,67,cs),
(477,87,o),
(485,107,o),
(485,133,cs),
(485,467,ls),
(485,493,o),
(477,513,o),
(461,533,cs),
(447,551,o),
(431,567,o),
(413,581,cs),
(393,597,o),
(372,605,o),
(347,605,cs),
(203,605,ls),
(178,605,o),
(158,596,o),
(138,580,cs),
(120,566,o),
(104,550,o),
(90,532,cs),
(74,512,o),
(65,493,o),
(65,467,cs),
(65,133,ls),
(65,107,o),
(73,87,o),
(89,67,cs),
(103,49,o),
(119,33,o),
(137,19,cs),
(157,3,o),
(178,-5,o),
(203,-5,cs)
);
},
{
closed = 1;
nodes = (
(342,549,ls),
(356,549,o),
(366,546,o),
(377,536,cs),
(390,524,o),
(402,512,o),
(414,499,cs),
(424,488,o),
(427,478,o),
(427,464,cs),
(427,136,ls),
(427,122,o),
(423,112,o),
(414,101,cs),
(402,88,o),
(390,76,o),
(377,64,cs),
(366,54,o),
(356,51,o),
(342,51,cs),
(208,51,ls),
(194,51,o),
(184,54,o),
(173,64,cs),
(160,76,o),
(148,88,o),
(136,101,cs),
(126,112,o),
(123,122,o),
(123,136,cs),
(123,464,ls),
(123,478,o),
(127,488,o),
(136,499,cs),
(148,512,o),
(160,524,o),
(173,536,cs),
(184,546,o),
(194,549,o),
(208,549,cs)
);
}
);
width = 550;
}
);
unicode = 79;
},
{
glyphname = P;
kernLeft = H;
kernRight = P;
lastChange = "2025-12-27 14:43:26 +0000";
layers = (
{
layerId = m01;
shapes = (
{
closed = 1;
nodes = (
(119,0,l),
(119,544,l),
(324,544,ls),
(334,544,o),
(343,542,o),
(351,535,cs),
(366,524,o),
(377,513,o),
(388,499,cs),
(395,490,o),
(397,483,o),
(397,472,cs),
(397,401,ls),
(397,390,o),
(395,383,o),
(388,374,cs),
(377,359,o),
(366,348,o),
(352,337,cs),
(344,330,o),
(335,328,o),
(325,328,cs),
(99,328,l),
(99,272,l),
(334,272,ls),
(356,272,o),
(372,277,o),
(389,292,cs),
(406,306,o),
(421,322,o),
(435,338,cs),
(450,355,o),
(455,371,o),
(455,393,cs),
(455,479,ls),
(455,501,o),
(450,517,o),
(435,534,cs),
(421,551,o),
(405,566,o),
(389,580,cs),
(372,595,o),
(356,600,o),
(334,600,cs),
(65,600,l),
(65,0,l)
);
}
);
width = 495;
}
);
metricLeft = H;
unicode = 80;
},
{
glyphname = Q;
kernLeft = O;
kernRight = Q;
lastChange = "2025-12-27 14:43:29 +0000";
layers = (
{
layerId = m01;
shapes = (
{
ref = O;
},
{
closed = 1;
nodes = (
(499,18,l),
(368,149,l),
(327,109,l),
(458,-22,l)
);
}
);
width = 560;
}
);
metricLeft = O;
unicode = 81;
},
{
glyphname = R;
kernLeft = H;
kernRight = R;
lastChange = "2025-12-27 14:43:31 +0000";
layers = (
{
layerId = m01;
shapes = (
{
closed = 1;
nodes = (
(119,0,l),
(119,544,l),
(334,544,ls),
(344,544,o),
(353,542,o),
(361,535,cs),
(376,524,o),
(387,513,o),
(398,499,cs),
(405,490,o),
(407,483,o),
(407,472,cs),
(407,401,ls),
(407,390,o),
(405,383,o),
(398,374,cs),
(387,359,o),
(376,348,o),
(362,337,cs),
(354,330,o),
(345,328,o),
(335,328,cs),
(99,328,l),
(99,272,l),
(344,272,ls),
(366,272,o),
(382,277,o),
(399,292,cs),
(416,306,o),
(431,322,o),
(445,338,cs),
(460,355,o),
(465,371,o),
(465,393,cs),
(465,479,ls),
(465,501,o),
(460,517,o),
(445,534,cs),
(431,551,o),
(415,566,o),
(399,580,cs),
(382,595,o),
(366,600,o),
(344,600,cs),
(65,600,l),
(65,0,l)
);
},
{
closed = 1;
nodes = (
(292,315,l),
(417,0,l),
(479,0,l),
(354,315,l)
);
}
);
width = 519;
}
);
metricLeft = H;
unicode = 82;
},
{
glyphname = S;
kernLeft = S;
kernRight = S;
lastChange = "2025-12-27 16:21:14 +0000";
layers = (
{
layerId = m01;
shapes = (
{
closed = 1;
nodes = (
(472,528,l),
(458,546,o),
(442,562,o),
(424,576,cs),
(404,592,o),
(383,600,o),
(358,600,cs),
(204,600,ls),
(179,600,o),
(159,591,o),
(139,575,cs),
(121,561,o),
(105,545,o),
(91,527,cs),
(75,507,o),
(66,488,o),
(66,462,cs),
(66,397,ls),
(66,343,o),
(93,310,o),
(146,299,cs),
(374,251,ls),
(397,246,o),
(409,231,o),
(409,207,cs),
(409,141,ls),
(409,127,o),
(405,117,o),
(396,106,c),
(359,69,ls),
(348,59,o),
(338,56,o),
(324,56,cs),
(179,56,ls),
(165,56,o),
(155,59,o),
(144,69,cs),
(107,106,l),
(60,72,l),
(74,54,o),
(90,38,o),
(108,24,cs),
(128,8,o),
(149,0,o),
(174,0,cs),
(328,0,ls),
(353,0,o),
(373,9,o),
(393,25,cs),
(411,39,o),
(427,55,o),
(441,73,cs),
(457,93,o),
(466,112,o),
(466,138,cs),
(466,208,ls),
(466,262,o),
(439,295,o),
(386,306,cs),
(158,354,ls),
(135,359,o),
(123,373,o),
(123,397,cs),
(123,459,ls),
(123,473,o),
(127,483,o),
(136,494,c),
(173,531,ls),
(184,541,o),
(194,544,o),
(208,544,cs),
(353,544,ls),
(367,544,o),
(377,541,o),
(388,531,cs),
(425,494,l)
);
}
);
width = 532;
}
);
unicode = 83;
},
{
glyphname = T;
kernLeft = T;
kernRight = T;
lastChange = "2025-12-27 15:10:48 +0000";
layers = (
{
layerId = m01;
shapes = (
{
closed = 1;
nodes = (
(465,544,l),
(465,600,l),
(35,600,l),
(35,544,l)
);
},
{
closed = 1;
nodes = (
(279,0,l),
(279,600,l),
(221,600,l),
(221,0,l)
);
}
);
width = 500;
}
);
unicode = 84;
},
{
glyphname = U;
kernLeft = U;
kernRight = U;
lastChange = "2025-12-27 14:43:39 +0000";
layers = (
{
layerId = m01;
shapes = (
{
closed = 1;
nodes = (
(65,600,l),
(65,133,ls),
(65,107,o),
(73,87,o),
(89,67,cs),
(103,49,o),
(119,33,o),
(137,19,cs),
(157,3,o),
(178,-5,o),
(203,-5,cs),
(347,-5,ls),
(372,-5,o),
(393,3,o),
(413,19,cs),
(431,33,o),
(447,49,o),
(461,67,cs),
(477,87,o),
(485,107,o),
(485,133,cs),
(485,600,l),
(427,600,l),
(427,136,ls),
(427,122,o),
(423,112,o),
(414,101,cs),
(402,88,o),
(390,76,o),
(377,64,cs),
(366,54,o),
(356,51,o),
(342,51,cs),
(208,51,ls),
(194,51,o),
(184,54,o),
(173,64,cs),
(160,76,o),
(148,88,o),
(136,101,cs),
(126,112,o),
(123,122,o),
(123,136,cs),
(123,600,l)
);
}
);
width = 550;
}
);
unicode = 85;
},
{
glyphname = V;
kernLeft = V;
kernRight = V;
lastChange = "2025-12-27 14:43:42 +0000";
layers = (
{
layerId = m01;
shapes = (
{
closed = 1;
nodes = (
(330,0,l),
(560,600,l),
(498,600,l),
(295,70,l),
(285,70,l),
(82,600,l),
(20,600,l),
(250,0,l)
);
}
);
width = 580;
}
);
unicode = 86;
},
{
glyphname = W;
kernLeft = W;
kernRight = W;
lastChange = "2025-12-27 14:42:38 +0000";
layers = (
{
layerId = m01;
shapes = (
{
closed = 1;
nodes = (
(278,0,l),
(408,517,l),
(538,0,l),
(634,0,l),
(756,600,l),
(696,600,l),
(589,74,l),
(579,74,l),
(446,600,l),
(370,600,l),
(237,74,l),
(227,74,l),
(80,600,l),
(20,600,l),
(182,0,l)
);
}
);
width = 776;
}
);
unicode = 87;
},
{
glyphname = X;
kernLeft = X;
kernRight = X;
lastChange = "2025-12-26 20:09:35 +0000";
layers = (
{
layerId = m01;
shapes = (
{
closed = 1;
nodes = (
(96,0,l),
(253,255,l),
(410,0,l),
(476,0,l),
(294,300,l),
(476,600,l),
(410,600,l),
(253,345,l),
(96,600,l),
(30,600,l),
(212,300,l),
(30,0,l)
);
}
);
width = 506;
}
);
unicode = 88;
},
{
glyphname = Y;
kernLeft = Y;
kernRight = Y;
lastChange = "2025-12-26 20:15:46 +0000";
layers = (
{
layerId = m01;
shapes = (
{
closed = 1;
nodes = (
(460,600,l),
(394,600,l),
(240,310,l),
(86,600,l),
(20,600,l),
(240,186,l)
);
},
{
closed = 1;
nodes = (
(211,0,l),
(269,0,l),
(269,287,l),
(211,287,l)
);
}
);
width = 480;
}
);
unicode = 89;
},
{
glyphname = Z;
kernLeft = Z;
kernRight = Z;
lastChange = "2025-12-26 20:13:29 +0000";
layers = (
{
layerId = m01;
shapes = (
{
closed = 1;
nodes = (
(480,0,l),
(480,56,l),
(110,56,l),
(480,539,l),
(480,600,l),
(43,600,l),
(43,544,l),
(410,544,l),
(40,61,l),
(40,0,l)
);
}
);
width = 520;
}
);
unicode = 90;
},
{
glyphname = a;
kernLeft = a;
kernRight = a;
lastChange = "2025-12-27 16:38:14 +0000";
layers = (
{
hints = (
{
origin = (0,44);
target = (0,11);
type = Stem;
}
);
layerId = m01;
shapes = (
{
piece = {
Height = 19.47361;
kink = 100;
};
pos = (458,0);
ref = _part.stem_down;
scale = (-1,1);
},
{
closed = 1;
nodes = (
(377,259,l),
(167,259,ls),
(145,259,o),
(129,253,o),
(112,239,cs),
(98,228,o),
(88,218,o),
(76,203,cs),
(62,185,o),
(56,169,o),
(56,148,cs),
(56,108,ls),
(56,87,o),
(62,70,o),
(76,53,cs),
(87,39,o),
(97,29,o),
(112,17,cs),
(130,3,o),
(145,-3,o),
(167,-3,cs),
(289,-3,ls),
(311,-3,o),
(327,2,o),
(344,17,cs),
(360,31,o),
(376,46,o),
(390,63,c),
(357,102,l),
(357,82,o),
(348,71,o),
(330,58,cs),
(322,51,o),
(313,49,o),
(303,49,cs),
(173,49,ls),
(163,49,o),
(155,52,o),
(146,58,cs),
(135,66,o),
(128,73,o),
(119,86,cs),
(113,95,o),
(110,102,o),
(110,113,cs),
(110,144,ls),
(110,155,o),
(113,162,o),
(119,171,cs),
(128,183,o),
(134,189,o),
(147,198,cs),
(156,204,o),
(164,207,o),
(174,207,cs),
(377,207,l)
);
},
{
closed = 1;
nodes = (
(411,336,o),
(406,352,o),
(391,369,cs),
(377,385,o),
(362,401,o),
(345,415,cs),
(328,430,o),
(312,435,o),
(290,435,cs),
(162,435,ls),
(140,435,o),
(124,430,o),
(107,415,cs),
(87,397,o),
(56,368,o),
(40,344,c),
(20,375,l),
(145,331,l),
(83,312,l),
(97,333,o),
(122,359,o),
(142,374,cs),
(150,381,o),
(159,383,o),
(169,383,cs),
(284,383,ls),
(294,383,o),
(303,381,o),
(311,374,cs),
(325,363,o),
(337,351,o),
(348,336,cs),
(355,327,o),
(357,320,o),
(357,309,c),
(357,234,l),
(411,234,l),
(411,314,l)
);
}
);
width = 469;
}
);
metricRight = d;
unicode = 97;
},
{
glyphname = ae;
kernLeft = a;
kernRight = e;
lastChange = "2025-12-27 16:31:50 +0000";
layers = (
{
layerId = m01;
shapes = (
{
closed = 1;
nodes = (
(351,369,l),
(337,385,o),
(322,401,o),
(305,415,cs),
(288,430,o),
(272,435,o),
(250,435,cs),
(162,435,ls),
(140,435,o),
(124,430,o),
(107,415,cs),
(87,397,o),
(56,368,o),
(40,344,c),
(20,375,l),
(145,331,l),
(83,312,l),
(97,333,o),
(122,359,o),
(142,374,cs),
(150,381,o),
(159,383,o),
(169,383,cs),
(244,383,ls),
(254,383,o),
(263,381,o),
(271,374,cs),
(285,363,o),
(297,351,o),
(308,336,cs),
(315,327,o),
(317,320,o),
(317,309,c)
);
},
{
closed = 1;
nodes = (
(351,196,l),
(637,196,l),
(637,314,ls),
(637,336,o),
(632,352,o),
(617,369,cs),
(603,386,o),
(587,401,o),
(571,415,cs),
(554,430,o),
(538,435,o),
(516,435,cs),
(438,435,ls),
(416,435,o),
(400,430,o),
(383,415,cs),
(366,401,o),
(351,385,o),
(337,369,cs),
(322,352,o),
(317,336,o),
(317,314,cs),
(317,85,l),
(344,54,o),
(352,44,o),
(383,17,cs),
(400,2,o),
(416,-3,o),
(438,-3,cs),
(525,-3,ls),
(547,-3,o),
(563,2,o),
(580,17,cs),
(597,31,o),
(620,54,o),
(641,78,c),
(584,95,l),
(571,80,o),
(557,66,o),
(546,58,cs),
(538,51,o),
(529,49,o),
(519,49,cs),
(445,49,ls),
(435,49,o),
(426,51,o),
(418,58,cs),
(403,69,o),
(391,81,o),
(380,95,cs),
(373,104,o),
(371,111,o),
(371,122,cs),
(371,309,ls),
(371,320,o),
(373,327,o),
(380,336,cs),
(391,351,o),
(403,363,o),
(417,374,cs),
(425,381,o),
(434,383,o),
(444,383,cs),
(509,383,ls),
(519,383,o),
(528,381,o),
(536,374,cs),
(551,363,o),
(563,351,o),
(574,337,cs),
(581,328,o),
(583,321,o),
(583,310,cs),
(583,248,l),
(351,248,l)
);
},
{
closed = 1;
nodes = (
(337,249,l),
(167,249,ls),
(145,249,o),
(129,243,o),
(112,229,cs),
(98,218,o),
(88,208,o),
(76,193,cs),
(62,175,o),
(56,159,o),
(56,138,cs),
(56,108,ls),
(56,87,o),
(62,70,o),
(76,53,cs),
(87,39,o),
(97,29,o),
(112,17,cs),
(130,3,o),
(145,-3,o),
(167,-3,cs),
(250,-3,ls),
(272,-3,o),
(288,2,o),
(305,17,cs),
(336,44,o),
(344,54,o),
(371,85,c),
(317,122,l),
(317,108,o),
(315,104,o),
(308,95,cs),
(297,81,o),
(285,69,o),
(270,58,cs),
(262,51,o),
(253,49,o),
(243,49,cs),
(173,49,ls),
(163,49,o),
(155,52,o),
(146,58,cs),
(135,66,o),
(128,73,o),
(119,86,cs),
(113,95,o),
(110,102,o),
(110,113,cs),
(110,134,ls),
(110,145,o),
(113,152,o),
(119,161,cs),
(128,173,o),
(134,179,o),
(147,188,cs),
(156,194,o),
(164,197,o),
(174,197,cs),
(337,197,l)
);
}
);
width = 692;
}
);
metricLeft = a;
metricRight = e;
unicode = 230;
},
{
glyphname = c;
kernLeft = o;
kernRight = c;
lastChange = "2025-12-27 14:43:56 +0000";
layers = (
{
layerId = m01;
shapes = (
{
ref = o;
},
{
attr = {
mask = 1;
};
closed = 1;
nodes = (
(428,59,l),
(428,370,l),
(254,316,l),
(254,113,l)
);
}
);
width = 430;
}
);
metricLeft = o;
unicode = 99;
},
{
glyphname = e;
kernLeft = o;
lastChange = "2025-12-27 16:27:47 +0000";
layers = (
{
layerId = m01;
shapes = (
{
closed = 1;
nodes = (
(89,193,l),
(405,193,l),
(405,314,ls),
(405,336,o),
(400,352,o),
(385,369,cs),
(371,386,o),
(355,401,o),
(339,415,cs),
(322,430,o),
(306,435,o),
(284,435,cs),
(176,435,ls),
(154,435,o),
(138,430,o),
(121,415,cs),
(104,401,o),
(89,385,o),
(75,369,cs),
(60,352,o),
(55,336,o),
(55,314,cs),
(55,116,ls),
(55,94,o),
(60,78,o),
(75,61,cs),
(89,44,o),
(105,29,o),
(121,15,cs),
(138,0,o),
(154,-5,o),
(176,-5,cs),
(293,-5,ls),
(315,-5,o),
(331,0,o),
(348,15,cs),
(365,29,o),
(388,52,o),
(409,76,c),
(352,93,l),
(339,78,o),
(325,64,o),
(314,56,cs),
(306,49,o),
(297,47,o),
(287,47,cs),
(183,47,ls),
(173,47,o),
(164,49,o),
(156,56,cs),
(141,67,o),
(129,79,o),
(118,93,cs),
(111,102,o),
(109,109,o),
(109,120,cs),
(109,309,ls),
(109,320,o),
(111,327,o),
(118,336,cs),
(129,351,o),
(141,363,o),
(155,374,cs),
(163,381,o),
(172,383,o),
(182,383,cs),
(277,383,ls),
(287,383,o),
(296,381,o),
(304,374,cs),
(319,363,o),
(331,351,o),
(342,337,cs),
(349,328,o),
(351,321,o),
(351,310,cs),
(351,245,l),
(89,245,l)
);
}
);
width = 460;
}
);
metricLeft = o;
unicode = 101;
},
{
glyphname = f;
kernLeft = f;
kernRight = f;
lastChange = "2025-12-27 15:11:18 +0000";
layers = (
{
layerId = m01;
shapes = (
{
closed = 1;
nodes = (
(174,475,ls),
(174,486,o),
(176,493,o),
(183,502,cs),
(194,516,o),
(206,528,o),
(221,539,cs),
(229,546,o),
(238,548,o),
(248,548,cs),
(339,548,l),
(339,600,l),
(241,600,ls),
(219,600,o),
(203,595,o),
(186,580,cs),
(170,566,o),
(154,551,o),
(140,534,cs),
(125,517,o),
(120,501,o),
(120,479,cs),
(120,-5,l),
(174,-5,l)
);
},
{
closed = 1;
nodes = (
(318,378,l),
(318,430,l),
(50,430,l),
(50,378,l)
);
}
);
width = 359;
}
);
unicode = 102;
},
{
glyphname = g;
kernLeft = g;
kernRight = g;
lastChange = "2025-12-27 14:44:25 +0000";
layers = (
{
layerId = m01;
shapes = (
{
piece = {
Width = 340;
};
pos = (460,0);
ref = _part.lowercase_bowl;
scale = (-1,1);
},
{
piece = {
Height = 215;
kink = 100;
};
pos = (457,0);
ref = _part.stem_up;
scale = (-1,1);
},
{
closed = 1;
nodes = (
(410,0,l),
(356,0,l),
(356,-74,l),
(356,-85,o),
(354,-92,o),
(347,-101,cs),
(336,-116,o),
(324,-128,o),
(310,-139,cs),
(302,-146,o),
(293,-148,o),
(283,-148,cs),
(178,-148,ls),
(168,-148,o),
(159,-146,o),
(151,-139,cs),
(131,-124,o),
(106,-98,o),
(92,-77,c),
(154,-96,l),
(29,-140,l),
(49,-109,l),
(65,-133,o),
(96,-162,o),
(116,-180,cs),
(133,-195,o),
(149,-200,o),
(171,-200,cs),
(289,-200,ls),
(311,-200,o),
(327,-195,o),
(344,-180,cs),
(361,-166,o),
(376,-150,o),
(390,-134,cs),
(405,-117,o),
(410,-101,o),
(410,-79,c)
);
}
);
width = 468;
}
);
metricRight = "=d";
unicode = 103;
},
{
glyphname = i;
kernLeft = i;
kernRight = i;
lastChange = "2025-12-25 01:42:03 +0000";
layers = (
{
layerId = m01;
shapes = (
{
piece = {
kink = 0;
};
pos = (30,0);
ref = _part.stem_up;
},
{
closed = 1;
nodes = (
(70,524,l),
(134,524,l),
(134,602,l),
(70,602,l)
);
}
);
width = 204;
}
);
unicode = 105;
},
{
glyphname = j;
kernLeft = j;
kernRight = j;
lastChange = "2025-12-27 14:44:37 +0000";
layers = (
{
layerId = m01;
shapes = (
{
closed = 1;
nodes = (
(129,430,l),
(75,430,l),
(75,-74,l),
(75,-85,o),
(73,-92,o),
(66,-101,cs),
(55,-116,o),
(43,-128,o),
(29,-139,cs),
(21,-146,o),
(12,-148,o),
(2,-148,cs),
(-83,-148,l),
(-83,-200,l),
(8,-200,ls),
(30,-200,o),
(46,-195,o),
(63,-180,cs),
(80,-166,o),
(95,-150,o),
(109,-134,cs),
(124,-117,o),
(129,-101,o),
(129,-79,c)
);
},
{
closed = 1;
nodes = (
(70,524,l),
(134,524,l),
(134,602,l),
(70,602,l)
);
}
);
width = 204;
}
);
metricRight = i;
unicode = 106;
},
{
glyphname = k;
kernLeft = b;
kernRight = k;
lastChange = "2025-12-27 14:44:42 +0000";
layers = (
{
layerId = m01;
shapes = (
{
piece = {
Height = 385;
kink = 0;
};
pos = (156,0);
ref = _part.stem_down;
scale = (-1,1);
},
{
closed = 1;
nodes = (
(89,197,l),
(129,197,l),
(305,0,l),
(377,0,l),
(175,225,l),
(362,430,l),
(290,430,l),
(129,253,l),
(89,253,l)
);
}
);
width = 407;
}
);
metricLeft = h;
unicode = 107;
},
{
glyphname = o;
kernLeft = o;
kernRight = o;
lastChange = "2025-12-27 16:38:17 +0000";
layers = (
{
hints = (
{
origin = (1,29);
target = (0,9);
type = Stem;
},
{
origin = (0,29);
target = (1,9);
type = Stem;
}
);
layerId = m01;
shapes = (
{
closed = 1;
nodes = (
(294,-5,ls),
(316,-5,o),
(331,1,o),
(349,15,cs),
(366,29,o),
(382,45,o),
(395,61,cs),
(409,79,o),
(415,94,o),
(415,116,cs),
(415,314,ls),
(415,336,o),
(409,351,o),
(395,369,cs),
(382,385,o),
(366,401,o),
(349,415,cs),
(331,429,o),
(316,435,o),
(294,435,cs),
(176,435,ls),
(154,435,o),
(139,429,o),
(121,415,cs),
(104,401,o),
(88,385,o),
(75,369,cs),
(61,351,o),
(55,336,o),
(55,314,cs),
(55,116,ls),
(55,94,o),
(61,79,o),
(75,61,cs),
(88,45,o),
(104,29,o),
(121,15,cs),
(139,1,o),
(154,-5,o),
(176,-5,cs)
);
},
{
closed = 1;
nodes = (
(172,47,o),
(163,49,o),
(155,56,cs),
(141,68,o),
(129,80,o),
(118,94,cs),
(111,103,o),
(109,110,o),
(109,121,cs),
(109,309,ls),
(109,320,o),
(111,327,o),
(118,336,cs),
(129,350,o),
(141,362,o),
(155,374,cs),
(163,381,o),
(172,383,o),
(182,383,cs),
(288,383,ls),
(298,383,o),
(307,381,o),
(315,374,cs),
(329,362,o),
(341,350,o),
(352,336,cs),
(359,327,o),
(361,320,o),
(361,309,cs),
(361,121,ls),
(361,110,o),
(359,103,o),
(352,94,cs),
(341,80,o),
(329,68,o),
(315,56,cs),
(307,49,o),
(298,47,o),
(288,47,cs),
(182,47,ls)
);
}
);
width = 470;
}
);
unicode = 111;
},
{
glyphname = r;
kernLeft = r;
kernRight = r;
lastChange = "2025-12-27 02:01:22 +0000";
layers = (
{
layerId = m01;
shapes = (
{
piece = {
kink = 100;
};
pos = (21,0);
ref = _part.stem_up;
},
{
piece = {
Width = 300;
};
pos = (41,0);
ref = _part.shoulder;
},
{
attr = {
mask = 1;
};
closed = 1;
nodes = (
(428,-200,l),
(428,455,l),
(254,301,l),
(254,-199,l)
);
}
);
width = 372;
}
);
metricLeft = r;
unicode = 114;
},
{
glyphname = s;
kernLeft = s;
kernRight = s;
lastChange = "2025-12-27 16:21:22 +0000";
layers = (
{
layerId = m01;
shapes = (
{
closed = 1;
nodes = (
(414,138,ls),
(414,194,o),
(385,226,o),
(330,233,cs),
(147,256,ls),
(126,259,o),
(114,271,o),
(114,293,cs),
(114,305,ls),
(114,316,o),
(116,323,o),
(123,332,cs),
(134,346,o),
(146,358,o),
(161,369,cs),
(169,376,o),
(178,378,o),
(188,378,cs),
(292,378,ls),
(302,378,o),
(311,376,o),
(319,369,cs),
(330,361,o),
(344,347,o),
(357,332,c),
(414,349,l),
(393,373,o),
(370,396,o),
(353,410,cs),
(336,425,o),
(320,430,o),
(298,430,cs),
(181,430,ls),
(159,430,o),
(143,425,o),
(126,410,cs),
(110,396,o),
(94,381,o),
(80,364,cs),
(65,347,o),
(60,331,o),
(60,309,cs),
(60,298,ls),
(60,242,o),
(89,210,o),
(144,203,cs),
(327,180,ls),
(348,177,o),
(360,165,o),
(360,143,cs),
(360,125,ls),
(360,114,o),
(358,107,o),
(351,98,cs),
(340,84,o),
(328,72,o),
(313,61,cs),
(305,54,o),
(296,52,o),
(286,52,cs),
(177,52,ls),
(167,52,o),
(158,54,o),
(150,61,cs),
(139,69,o),
(125,83,o),
(112,98,c),
(55,81,l),
(76,57,o),
(99,34,o),
(116,20,cs),
(133,5,o),
(149,0,o),
(171,0,cs),
(293,0,ls),
(315,0,o),
(331,5,o),
(348,20,cs),
(364,34,o),
(380,49,o),
(394,66,cs),
(409,83,o),
(414,99,o),
(414,121,cs)
);
}
);
width = 469;
}
);
unicode = 115;
},
{
glyphname = t;
kernLeft = t;
kernRight = t;
lastChange = "2025-12-27 15:10:45 +0000";
layers = (
{
layerId = m01;
shapes = (
{
closed = 1;
nodes = (
(104,600,l),
(104,116,ls),
(104,94,o),
(109,78,o),
(124,61,cs),
(138,44,o),
(154,29,o),
(170,15,cs),
(187,0,o),
(203,-5,o),
(225,-5,cs),
(323,-5,l),
(323,47,l),
(232,47,ls),
(222,47,o),
(213,49,o),
(205,56,cs),
(190,67,o),
(178,79,o),
(167,93,cs),
(160,102,o),
(158,109,o),
(158,120,cs),
(158,600,l)
);
},
{
closed = 1;
nodes = (
(34,378,l),
(322,378,l),
(322,430,l),
(34,430,l)
);
}
);
width = 374;
}
);
unicode = 116;
},
{
glyphname = v;
kernLeft = v;
kernRight = v;
lastChange = "2025-12-27 14:45:18 +0000";
layers = (
{
layerId = m01;
shapes = (
{
closed = 1;
nodes = (
(250,0,l),
(400,430,l),
(343,430,l),
(215,59,l),
(205,59,l),
(77,430,l),
(20,430,l),
(170,0,l)
);
}
);
width = 420;
}
);
unicode = 118;
},
{
glyphname = w;
kernLeft = w;
kernRight = w;
lastChange = "2025-12-27 14:45:22 +0000";
layers = (
{
layerId = m01;
shapes = (
{
closed = 1;
nodes = (
(220,0,l),
(318,365,l),
(416,0,l),
(496,0,l),
(626,430,l),
(570,430,l),
(461,66,l),
(451,66,l),
(353,430,l),
(283,430,l),
(185,66,l),
(175,66,l),
(76,430,l),
(20,430,l),
(140,0,l)
);
}
);
width = 646;
}
);
unicode = 119;
},
{
glyphname = x;
kernLeft = x;
kernRight = x;
lastChange = "2025-12-26 20:10:50 +0000";
layers = (
{
layerId = m01;
shapes = (
{
closed = 1;
nodes = (
(102,0,l),
(213,174,l),
(324,0,l),
(386,0,l),
(247,215,l),
(386,430,l),
(324,430,l),
(213,255,l),
(102,430,l),
(40,430,l),
(179,215,l),
(40,0,l)
);
}
);
width = 426;
}
);
unicode = 120;
},
{
glyphname = y;
kernLeft = y;
kernRight = y;
lastChange = "2025-12-27 16:37:57 +0000";
layers = (
{
layerId = m01;
shapes = (
{
closed = 1;
nodes = (
(436,430,l),
(206,-200,l),
(149,-200,l),
(379,430,l)
);
},
{
closed = 1;
nodes = (
(235,52,l),
(264,52,l),
(245,0,l),
(197,0,l),
(40,430,l),
(97,430,l)
);
}
);
width = 476;
}
);
unicode = 121;
},
{
glyphname = z;
kernLeft = z;
kernRight = z;
lastChange = "2025-12-26 20:13:32 +0000";
layers = (
{
layerId = m01;
shapes = (
{
closed = 1;
nodes = (
(360,0,l),
(360,52,l),
(103,52,l),
(360,373,l),
(360,430,l),
(43,430,l),
(43,378,l),
(297,378,l),
(40,57,l),
(40,0,l)
);
}
);
width = 400;
}
);
unicode = 122;
},
{
glyphname = zero;
lastChange = "2025-12-27 02:07:42 +0000";
layers = (
{
layerId = m01;
shapes = (
{
closed = 1;
nodes = (
(312,-5,ls),
(337,-5,o),
(358,3,o),
(378,19,cs),
(396,33,o),
(412,49,o),
(426,67,cs),
(442,87,o),
(450,107,o),
(450,133,cs),
(450,467,ls),
(450,493,o),
(442,513,o),
(426,533,cs),
(412,551,o),
(396,567,o),
(378,581,cs),
(358,597,o),
(337,605,o),
(312,605,cs),
(188,605,ls),
(163,605,o),
(143,596,o),
(123,580,cs),
(105,566,o),
(89,550,o),
(75,532,cs),
(59,512,o),
(50,493,o),
(50,467,cs),
(50,133,ls),
(50,107,o),
(58,87,o),
(74,67,cs),
(88,49,o),
(104,33,o),
(122,19,cs),
(142,3,o),
(163,-5,o),
(188,-5,cs)
);
},
{
closed = 1;
nodes = (
(307,549,ls),
(321,549,o),
(331,546,o),
(342,536,cs),
(355,524,o),
(367,512,o),
(379,499,cs),
(389,488,o),
(392,478,o),
(392,464,cs),
(392,136,ls),
(392,122,o),
(388,112,o),
(379,101,cs),
(367,88,o),
(355,76,o),
(342,64,cs),
(331,54,o),
(321,51,o),
(307,51,cs),
(193,51,ls),
(179,51,o),
(169,54,o),
(158,64,cs),
(145,76,o),
(133,88,o),
(121,101,cs),
(111,112,o),
(108,122,o),
(108,136,cs),
(108,464,ls),
(108,478,o),
(112,488,o),
(121,499,cs),
(133,512,o),
(145,524,o),
(158,536,cs),
(169,546,o),
(179,549,o),
(193,549,cs)
);
},
{
closed = 1;
nodes = (
(410,419,l),
(410,501,l),
(90,181,l),
(90,99,l)
);
}
);
width = 500;
}
);
unicode = 48;
},
{
glyphname = one;
lastChange = "2025-12-27 15:51:15 +0000";
layers = (
{
layerId = m01;
shapes = (
{
closed = 1;
nodes = (
(300,20,l),
(300,600,l),
(122,600,l),
(122,544,l),
(242,544,l),
(242,20,l)
);
},
{
closed = 1;
nodes = (
(445,0,l),
(445,56,l),
(55,56,l),
(55,0,l)
);
}
);
width = 500;
}
);
unicode = 49;
},
{
glyphname = two;
lastChange = "2025-12-27 15:54:41 +0000";
layers = (
{
layerId = m01;
shapes = (
{
closed = 1;
nodes = (
(99,499,l),
(111,512,o),
(123,524,o),
(136,536,cs),
(147,546,o),
(157,549,o),
(171,549,cs),
(295,549,ls),
(309,549,o),
(319,546,o),
(330,536,cs),
(343,524,o),
(355,512,o),
(367,499,cs),
(377,488,o),
(380,478,o),
(380,464,cs),
(380,416,ls),
(380,395,o),
(372,381,o),
(353,369,cs),
(119,223,ls),
(77,197,o),
(59,164,o),
(59,115,cs),
(59,0,l),
(442,0,l),
(442,56,l),
(117,56,l),
(117,123,ls),
(117,144,o),
(125,158,o),
(144,170,cs),
(378,316,ls),
(420,342,o),
(438,375,o),
(438,424,cs),
(438,467,ls),
(438,493,o),
(430,513,o),
(414,533,cs),
(400,551,o),
(384,567,o),
(366,581,cs),
(346,597,o),
(325,605,o),
(300,605,cs),
(166,605,ls),
(141,605,o),
(121,596,o),
(101,580,cs),
(83,566,o),
(67,550,o),
(53,532,c)
);
}
);
width = 500;
}
);
unicode = 50;
},
{
glyphname = three;
lastChange = "2025-12-25 17:41:56 +0000";
layers = (
{
layerId = m01;
shapes = (
{
closed = 1;
nodes = (
(209,272,l),
(355,272,l),
(355,328,l),
(209,328,l)
);
},
{
pos = (-20,0);
ref = _part.3_bowl;
},
{
pos = (-20,600);
ref = _part.3_bowl;
scale = (1,-1);
}
);
width = 500;
}
);
unicode = 51;
},
{
glyphname = four;
lastChange = "2025-12-27 15:54:20 +0000";
layers = (
{
layerId = m01;
shapes = (
{
closed = 1;
nodes = (
(460,170,l),
(460,226,l),
(102,226,l),
(330,600,l),
(262,600,l),
(40,236,l),
(40,170,l)
);
},
{
closed = 1;
nodes = (
(410,0,l),
(410,430,l),
(352,430,l),
(352,0,l)
);
}
);
width = 500;
}
);
unicode = 52;
},
{
glyphname = five;
lastChange = "2025-12-27 15:48:36 +0000";
layers = (
{
layerId = m01;
shapes = (
{
closed = 1;
nodes = (
(48,78,l),
(62,60,o),
(89,33,o),
(107,19,cs),
(127,3,o),
(148,-5,o),
(173,-5,cs),
(312,-5,ls),
(337,-5,o),
(358,3,o),
(378,19,cs),
(396,33,o),
(412,49,o),
(426,67,cs),
(442,87,o),
(450,107,o),
(450,133,cs),
(450,212,ls),
(450,238,o),
(442,258,o),
(426,278,cs),
(412,296,o),
(396,312,o),
(378,326,cs),
(358,342,o),
(337,350,o),
(312,350,cs),
(124,350,l),
(124,544,l),
(419,544,l),
(419,600,l),
(66,600,l),
(66,294,l),
(307,294,ls),
(321,294,o),
(331,291,o),
(342,281,cs),
(379,244,ls),
(389,233,o),
(392,223,o),
(392,209,cs),
(392,136,ls),
(392,122,o),
(388,112,o),
(379,101,c),
(342,64,ls),
(331,54,o),
(321,51,o),
(307,51,cs),
(178,51,ls),
(164,51,o),
(155,54,o),
(143,64,cs),
(124,80,o),
(112,93,o),
(96,112,c)
);
}
);
width = 500;
}
);
unicode = 53;
},
{
glyphname = six;
lastChange = "2025-12-26 19:06:40 +0000";
layers = (
{
layerId = m01;
shapes = (
{
closed = 1;
nodes = (
(108,464,ls),
(108,478,o),
(112,488,o),
(121,499,c),
(158,536,ls),
(169,546,o),
(179,549,o),
(193,549,cs),
(317,549,ls),
(331,549,o),
(340,546,o),
(352,536,cs),
(371,520,o),
(383,507,o),
(399,488,c),
(447,522,l),
(433,540,o),
(406,567,o),
(388,581,cs),
(368,597,o),
(347,605,o),
(322,605,cs),
(188,605,ls),
(163,605,o),
(142,597,o),
(122,581,cs),
(104,567,o),
(88,551,o),
(74,533,cs),
(58,513,o),
(50,493,o),
(50,467,cs),
(50,133,ls),
(50,107,o),
(58,87,o),
(74,67,cs),
(88,49,o),
(104,33,o),
(122,19,cs),
(142,3,o),
(163,-5,o),
(188,-5,cs),
(312,-5,ls),
(337,-5,o),
(358,3,o),
(378,19,cs),
(396,33,o),
(412,49,o),
(426,67,cs),
(442,87,o),
(450,107,o),
(450,133,cs),
(450,217,ls),
(450,243,o),
(442,263,o),
(426,283,cs),
(412,301,o),
(396,317,o),
(378,331,cs),
(358,347,o),
(337,355,o),
(312,355,cs),
(198,355,ls),
(173,355,o),
(151,344,o),
(130,330,cs),
(112,318,o),
(89,300,o),
(75,282,c),
(108,214,l),
(108,228,o),
(112,238,o),
(121,249,cs),
(133,262,o),
(148,274,o),
(169,286,cs),
(182,294,o),
(193,299,o),
(207,299,cs),
(307,299,ls),
(321,299,o),
(331,296,o),
(342,286,cs),
(379,249,ls),
(389,238,o),
(392,228,o),
(392,214,cs),
(392,136,ls),
(392,122,o),
(388,112,o),
(379,101,c),
(342,64,ls),
(331,54,o),
(321,51,o),
(307,51,cs),
(193,51,ls),
(179,51,o),
(169,54,o),
(158,64,cs),
(121,101,ls),
(111,112,o),
(108,122,o),
(108,136,cs)
);
}
);
width = 500;
}
);
unicode = 54;
},
{
glyphname = seven;
lastChange = "2025-12-27 02:08:20 +0000";
layers = (
{
layerId = m01;
shapes = (
{
closed = 1;
nodes = (
(230,0,l),
(460,534,l),
(460,600,l),
(50,600,l),
(50,485,l),
(108,485,l),
(108,544,l),
(401,544,l),
(167,0,l)
);
}
);
width = 500;
}
);
unicode = 55;
},
{
glyphname = eight;
lastChange = "2025-12-27 15:48:15 +0000";
layers = (
{
layerId = m01;
shapes = (
{
closed = 1;
nodes = (
(317,282,ls),
(342,282,o),
(363,290,o),
(383,306,cs),
(401,320,o),
(417,336,o),
(431,354,cs),
(447,374,o),
(455,394,o),
(455,420,cs),
(455,467,ls),
(455,493,o),
(447,513,o),
(431,533,cs),
(417,551,o),
(401,567,o),
(383,581,cs),
(363,597,o),
(342,605,o),
(317,605,cs),
(183,605,ls),
(158,605,o),
(138,596,o),
(118,580,cs),
(100,566,o),
(84,550,o),
(70,532,cs),
(54,512,o),
(45,493,o),
(45,467,cs),
(45,420,ls),
(45,394,o),
(53,374,o),
(69,354,cs),
(83,336,o),
(99,320,o),
(117,306,cs),
(137,290,o),
(158,282,o),
(183,282,cs)
);
},
{
closed = 1;
nodes = (
(312,549,ls),
(326,549,o),
(336,546,o),
(347,536,cs),
(360,524,o),
(372,512,o),
(384,499,cs),
(394,488,o),
(397,478,o),
(397,464,cs),
(397,423,ls),
(397,409,o),
(393,399,o),
(384,388,cs),
(372,375,o),
(360,363,o),
(347,351,cs),
(336,341,o),
(326,338,o),
(312,338,cs),
(188,338,ls),
(174,338,o),
(164,341,o),
(153,351,cs),
(140,363,o),
(128,375,o),
(116,388,cs),
(106,399,o),
(103,409,o),
(103,423,cs),
(103,464,ls),
(103,478,o),
(107,488,o),
(116,499,cs),
(128,512,o),
(140,524,o),
(153,536,cs),
(164,546,o),
(174,549,o),
(188,549,cs)
);
},
{
closed = 1;
nodes = (
(317,-5,ls),
(342,-5,o),
(363,3,o),
(383,19,cs),
(401,33,o),
(417,49,o),
(431,67,cs),
(447,87,o),
(455,107,o),
(455,133,cs),
(455,200,ls),
(455,226,o),
(447,246,o),
(431,266,cs),
(417,284,o),
(401,300,o),
(383,314,cs),
(363,330,o),
(342,338,o),
(317,338,cs),
(183,338,ls),
(158,338,o),
(138,329,o),
(118,313,cs),
(100,299,o),
(84,283,o),
(70,265,cs),
(54,245,o),
(45,226,o),
(45,200,cs),
(45,133,ls),
(45,107,o),
(53,87,o),
(69,67,cs),
(83,49,o),
(99,33,o),
(117,19,cs),
(137,3,o),
(158,-5,o),
(183,-5,cs)
);
},
{
closed = 1;
nodes = (
(312,282,ls),
(326,282,o),
(336,279,o),
(347,269,cs),
(360,257,o),
(372,245,o),
(384,232,cs),
(394,221,o),
(397,211,o),
(397,197,cs),
(397,136,ls),
(397,122,o),
(393,112,o),
(384,101,cs),
(372,88,o),
(360,76,o),
(347,64,cs),
(336,54,o),
(326,51,o),
(312,51,cs),
(188,51,ls),
(174,51,o),
(164,54,o),
(153,64,cs),
(140,76,o),
(128,88,o),
(116,101,cs),
(106,112,o),
(103,122,o),
(103,136,cs),
(103,197,ls),
(103,211,o),
(107,221,o),
(116,232,cs),
(128,245,o),
(140,257,o),
(153,269,cs),
(164,279,o),
(174,282,o),
(188,282,cs)
);
}
);
width = 500;
}
);
unicode = 56;
},
{
glyphname = exclam;
kernLeft = exclam;
kernRight = exclam;
lastChange = "2025-12-27 16:43:53 +0000";
layers = (
{
layerId = m01;
shapes = (
{
pos = (12,0);
ref = _part.period;
},
{
closed = 1;
nodes = (
(83,190,l),
(141,190,l),
(141,600,l),
(83,600,l)
);
}
);
width = 224;
}
);
metricLeft = period;
metricRight = period;
unicode = 33;
},
{
glyphname = question;
kernLeft = question;
kernRight = question;
lastChange = "2025-12-27 16:03:10 +0000";
layers = (
{
layerId = m01;
shapes = (
{
closed = 1;
nodes = (
(66,499,l),
(78,512,o),
(90,524,o),
(103,536,cs),
(114,546,o),
(124,549,o),
(138,549,cs),
(252,549,ls),
(266,549,o),
(276,546,o),
(287,536,cs),
(300,524,o),
(312,512,o),
(324,499,cs),
(334,488,o),
(337,478,o),
(337,464,cs),
(337,436,ls),
(337,415,o),
(329,401,o),
(310,389,cs),
(233,341,ls),
(191,315,o),
(173,282,o),
(173,233,cs),
(173,196,l),
(231,196,l),
(231,241,ls),
(231,262,o),
(239,276,o),
(258,288,cs),
(335,336,ls),
(378,363,o),
(395,395,o),
(395,444,cs),
(395,467,ls),
(395,493,o),
(387,513,o),
(371,533,cs),
(357,551,o),
(341,567,o),
(323,581,cs),
(303,597,o),
(282,605,o),
(257,605,cs),
(133,605,ls),
(108,605,o),
(88,596,o),
(68,580,cs),
(50,566,o),
(34,550,o),
(20,532,c)
);
},
{
pos = (103,0);
ref = _part.period;
}
);
width = 465;
}
);
unicode = 63;
},
{
glyphname = slash;
kernLeft = slash;
kernRight = slash;
lastChange = "2025-12-27 15:27:04 +0000";
layers = (
{
layerId = m01;
shapes = (
{
closed = 1;
nodes = (
(91,0,l),
(303,600,l),
(242,600,l),
(30,0,l)
);
}
);
width = 333;
}
);
unicode = 47;
},
{
glyphname = underscore;
kernLeft = underscore;
kernRight = underscore;
lastChange = "2025-12-27 16:12:19 +0000";
layers = (
{
layerId = m01;
shapes = (
{
closed = 1;
nodes = (
(60,-62,l),
(340,-62,l),
(340,-10,l),
(60,-10,l)
);
}
);
width = 400;
}
);
metricLeft = hyphen;
metricRight = hyphen;
unicode = 95;
},
{
glyphname = parenleft;
kernLeft = parenleft;
kernRight = parenleft;
lastChange = "2025-12-27 16:44:06 +0000";
layers = (
{
layerId = m01;
shapes = (
{
closed = 1;
nodes = (
(65,53,ls),
(65,27,o),
(74,8,o),
(90,-12,cs),
(131,-63,o),
(167,-100,o),
(218,-140,c),
(253,-96,l),
(209,-62,o),
(170,-23,o),
(136,21,cs),
(127,32,o),
(123,42,o),
(123,56,cs),
(123,544,ls),
(123,558,o),
(127,568,o),
(136,579,cs),
(170,623,o),
(209,662,o),
(253,696,c),
(218,740,l),
(167,700,o),
(131,663,o),
(90,612,cs),
(74,592,o),
(65,573,o),
(65,547,cs)
);
}
);
width = 273;
}
);
unicode = 40;
},
{
glyphname = braceleft;
kernLeft = braceleft;
kernRight = parenleft;
lastChange = "2025-12-27 16:42:41 +0000";
layers = (
{
layerId = m01;
shapes = (
{
closed = 1;
nodes = (
(63,272,ls),
(78,272,o),
(89,268,o),
(100,257,cs),
(170,187,ls),
(181,176,o),
(185,166,o),
(185,150,cs),
(185,-37,ls),
(185,-63,o),
(194,-82,o),
(210,-102,cs),
(224,-120,o),
(240,-136,o),
(258,-150,cs),
(278,-166,o),
(298,-175,o),
(323,-175,cs),
(421,-175,l),
(421,-119,l),
(328,-119,ls),
(314,-119,o),
(304,-116,o),
(293,-106,cs),
(280,-94,o),
(268,-82,o),
(256,-69,cs),
(247,-58,o),
(243,-48,o),
(243,-34,cs),
(243,138,ls),
(243,179,o),
(231,208,o),
(202,237,cs),
(137,300,l),
(202,363,ls),
(231,392,o),
(243,421,o),
(243,462,cs),
(243,634,ls),
(243,648,o),
(247,658,o),
(256,669,cs),
(268,682,o),
(280,694,o),
(293,706,cs),
(304,716,o),
(314,719,o),
(328,719,cs),
(421,719,l),
(421,775,l),
(323,775,ls),
(298,775,o),
(278,766,o),
(258,750,cs),
(240,736,o),
(224,720,o),
(210,702,cs),
(194,682,o),
(185,663,o),
(185,637,cs),
(185,450,ls),
(185,434,o),
(181,424,o),
(170,413,cs),
(100,343,ls),
(89,332,o),
(78,328,o),
(63,328,cs),
(35,328,l),
(35,272,l)
);
}
);
width = 441;
}
);
metricRight = parenleft;
unicode = 123;
},
{
glyphname = bracketleft;
kernLeft = bracketleft;
kernRight = parenleft;
lastChange = "2025-12-27 16:44:33 +0000";
layers = (
{
layerId = m01;
shapes = (
{
closed = 1;
nodes = (
(335,694,l),
(335,750,l),
(85,750,l),
(85,694,l)
);
},
{
closed = 1;
nodes = (
(123,-150,l),
(123,750,l),
(65,750,l),
(65,-150,l)
);
},
{
closed = 1;
nodes = (
(335,-150,l),
(335,-94,l),
(85,-94,l),
(85,-150,l)
);
}
);
width = 355;
}
);
metricLeft = parenleft;
metricRight = parenleft;
unicode = 91;
},
{
glyphname = bar;
kernLeft = bar;
kernRight = bar;
lastChange = "2025-12-27 16:43:22 +0000";
layers = (
{
layerId = m01;
shapes = (
{
closed = 1;
nodes = (
(123,-140,l),
(123,740,l),
(65,740,l),
(65,-140,l)
);
}
);
width = 188;
}
);
unicode = 124;
},
{
glyphname = cent;
kernLeft = c;
kernRight = c;
lastChange = "2025-12-27 16:44:41 +0000";
layers = (
{
layerId = m01;
shapes = (
{
ref = c;
},
{
closed = 1;
nodes = (
(250,-80,l),
(250,510,l),
(212,510,l),
(212,-80,l)
);
}
);
width = 415;
}
);
metricLeft = c;
metricRight = c;
unicode = 162;
},
{
glyphname = dollar;
kernLeft = S;
kernRight = S;
lastChange = "2025-12-27 16:44:43 +0000";
layers = (
{
layerId = m01;
shapes = (
{
ref = S;
},
{
closed = 1;
nodes = (
(285,-80,l),
(285,680,l),
(247,680,l),
(247,-80,l)
);
}
);
width = 532;
}
);
metricLeft = S;
metricRight = S;
unicode = 36;
},
{
glyphname = divide;
lastChange = "2025-12-27 16:48:36 +0000";
layers = (
{
layerId = m01;
shapes = (
{
piece = {
Width = 300;
};
ref = _part.dash;
},
{
closed = 1;
nodes = (
(240,158,l),
(240,218,l),
(180,218,l),
(180,158,l)
);
},
{
closed = 1;
nodes = (
(240,350,l),
(240,410,l),
(180,410,l),
(180,350,l)
);
}
);
width = 420;
}
);
metricLeft = plus;
metricRight = plus;
unicode = 247;
},
{
glyphname = less;
kernLeft = less;
kernRight = less;
lastChange = "2025-12-27 16:22:48 +0000";
layers = (
{
layerId = m01;
shapes = (
{
closed = 1;
nodes = (
(50,267,l),
(450,101,l),
(450,161,l),
(115,300,l),
(450,439,l),
(450,499,l),
(50,333,l)
);
}
);
width = 515;
}
);
unicode = 60;
},
{
export = 0;
glyphname = _part.3_bowl;
lastChange = "2025-12-26 18:41:57 +0000";
layers = (
{
layerId = m01;
shapes = (
{
closed = 1;
nodes = (
(116,494,l),
(153,531,ls),
(164,541,o),
(174,544,o),
(188,544,cs),
(302,544,ls),
(316,544,o),
(325,540,o),
(337,531,cs),
(351,521,o),
(364,508,o),
(374,494,cs),
(383,482,o),
(387,473,o),
(387,459,cs),
(387,402,ls),
(387,391,o),
(385,384,o),
(378,375,cs),
(367,360,o),
(355,348,o),
(341,337,cs),
(333,330,o),
(324,328,o),
(314,328,c),
(379,294,l),
(396,309,o),
(411,324,o),
(425,340,cs),
(440,357,o),
(445,373,o),
(445,395,cs),
(445,462,ls),
(445,488,o),
(437,508,o),
(421,528,cs),
(407,546,o),
(391,562,o),
(373,576,cs),
(353,592,o),
(332,600,o),
(307,600,cs),
(183,600,ls),
(158,600,o),
(138,591,o),
(118,575,cs),
(100,561,o),
(84,545,o),
(70,527,c)
);
}
);
width = 500;
}
);
},
{
export = 0;
glyphname = _part.comma;
lastChange = "2025-12-27 15:47:52 +0000";
layers = (
{
layerId = m01;
shapes = (
{
closed = 1;
nodes = (
(106,-80,l),
(136,0,l),
(136,90,l),
(65,90,l),
(65,-80,l)
);
}
);
width = 200;
}
);
},
{
export = 0;
glyphname = _part.dash;
lastChange = "2025-12-25 01:05:34 +0000";
layers = (
{
layerId = m01;
partSelection = {
Width = 1;
};
shapes = (
{
closed = 1;
nodes = (
(60,258,l),
(284,258,l),
(284,310,l),
(60,310,l)
);
}
);
width = 344;
},
{
associatedMasterId = m01;
layerId = "074D0E0B-2B5D-4985-BF89-94CF38B90C08";
name = Wide;
partSelection = {
Width = 2;
};
shapes = (
{
closed = 1;
nodes = (
(60,258,l),
(294,258,l),
(294,310,l),
(60,310,l)
);
}
);
width = 344;
}
);
partsSettings = (
{
bottomValue = 224;
name = Width;
topValue = 234;
}
);
},
{
export = 0;
glyphname = _part.lowercase_bowl;
lastChange = "2025-12-24 17:39:34 +0000";
layers = (
{
hints = (
{
origin = (0,17);
target = (0,50);
type = Stem;
}
);
layerId = m01;
partSelection = {
Width = 2;
Height = 2;
};
shapes = (
{
closed = 1;
nodes = (
(104,327,l),
(104,346,o),
(111,357,o),
(130,372,cs),
(138,379,o),
(147,381,o),
(157,381,cs),
(272,381,ls),
(282,381,o),
(291,379,o),
(299,372,cs),
(314,361,o),
(326,349,o),
(337,335,cs),
(344,326,o),
(346,319,o),
(346,308,cs),
(346,123,ls),
(346,112,o),
(344,105,o),
(337,96,cs),
(326,81,o),
(314,69,o),
(300,58,cs),
(292,51,o),
(283,49,o),
(273,49,cs),
(158,49,ls),
(148,49,o),
(139,51,o),
(131,58,cs),
(113,71,o),
(104,82,o),
(104,102,c),
(71,63,l),
(85,46,o),
(101,31,o),
(117,17,cs),
(134,2,o),
(150,-3,o),
(172,-3,cs),
(279,-3,ls),
(301,-3,o),
(317,2,o),
(334,17,cs),
(351,31,o),
(366,47,o),
(380,63,cs),
(395,80,o),
(400,96,o),
(400,118,cs),
(400,312,ls),
(400,334,o),
(395,350,o),
(380,367,cs),
(366,384,o),
(350,399,o),
(334,413,cs),
(317,428,o),
(301,433,o),
(279,433,cs),
(172,433,ls),
(150,433,o),
(134,428,o),
(117,413,cs),
(100,399,o),
(85,383,o),
(71,367,c)
);
}
);
width = 450;
},
{
associatedMasterId = m01;
layerId = "2B53C67F-1295-4A3D-80BD-11AC0EA36990";
name = Narrow;
partSelection = {
Width = 1;
Height = 2;
};
shapes = (
{
closed = 1;
nodes = (
(104,327,l),
(104,346,o),
(111,357,o),
(130,372,cs),
(138,379,o),
(147,381,o),
(157,381,cs),
(262,381,ls),
(272,381,o),
(281,379,o),
(289,372,cs),
(304,361,o),
(316,349,o),
(327,335,cs),
(334,326,o),
(336,319,o),
(336,308,cs),
(336,123,ls),
(336,112,o),
(334,105,o),
(327,96,cs),
(316,81,o),
(304,69,o),
(290,58,cs),
(282,51,o),
(273,49,o),
(263,49,cs),
(158,49,ls),
(148,49,o),
(139,51,o),
(131,58,cs),
(113,71,o),
(104,82,o),
(104,102,c),
(71,63,l),
(85,46,o),
(101,31,o),
(117,17,cs),
(134,2,o),
(150,-3,o),
(172,-3,cs),
(269,-3,ls),
(291,-3,o),
(307,2,o),
(324,17,cs),
(341,31,o),
(356,47,o),
(370,63,cs),
(385,80,o),
(390,96,o),
(390,118,cs),
(390,312,ls),
(390,334,o),
(385,350,o),
(370,367,cs),
(356,384,o),
(340,399,o),
(324,413,cs),
(307,428,o),
(291,433,o),
(269,433,cs),
(172,433,ls),
(150,433,o),
(134,428,o),
(117,413,cs),
(100,399,o),
(85,383,o),
(71,367,c)
);
}
);
width = 450;
},
{
associatedMasterId = m01;
hints = (
{
origin = (0,17);
target = (0,50);
type = Stem;
}
);
layerId = "5D81E464-9D56-46DA-A384-7E17795C1E05";
name = Short;
partSelection = {
Width = 2;
Height = 1;
};
shapes = (
{
closed = 1;
nodes = (
(104,317,l),
(104,336,o),
(111,347,o),
(130,362,cs),
(138,369,o),
(147,371,o),
(157,371,cs),
(272,371,ls),
(282,371,o),
(291,369,o),
(299,362,cs),
(314,351,o),
(326,339,o),
(337,325,cs),
(344,316,o),
(346,309,o),
(346,298,cs),
(346,123,ls),
(346,112,o),
(344,105,o),
(337,96,cs),
(326,81,o),
(314,69,o),
(300,58,cs),
(292,51,o),
(283,49,o),
(273,49,cs),
(158,49,ls),
(148,49,o),
(139,51,o),
(131,58,cs),
(113,71,o),
(104,82,o),
(104,102,c),
(71,63,l),
(85,46,o),
(101,31,o),
(117,17,cs),
(134,2,o),
(150,-3,o),
(172,-3,cs),
(279,-3,ls),
(301,-3,o),
(317,2,o),
(334,17,cs),
(351,31,o),
(366,47,o),
(380,63,cs),
(395,80,o),
(400,96,o),
(400,118,cs),
(400,302,ls),
(400,324,o),
(395,340,o),
(380,357,cs),
(366,374,o),
(350,389,o),
(334,403,cs),
(317,418,o),
(301,423,o),
(279,423,cs),
(172,423,ls),
(150,423,o),
(134,418,o),
(117,403,cs),
(100,389,o),
(85,373,o),
(71,357,c)
);
}
);
visible = 1;
width = 450;
}
);
partsSettings = (
{
bottomValue = 320;
name = Width;
topValue = 330;
},
{
bottomValue = 426;
name = Height;
topValue = 436;
}
);
},
{
export = 0;
glyphname = _part.period;
lastChange = "2025-12-27 16:02:11 +0000";
layers = (
{
layerId = m01;
shapes = (
{
closed = 1;
nodes = (
(140,-5,l),
(140,80,l),
(60,80,l),
(60,-5,l)
);
}
);
width = 200;
}
);
},
{
export = 0;
glyphname = _part.quote_unsigned;
lastChange = "2025-12-27 15:41:58 +0000";
layers = (
{
layerId = m01;
partSelection = {
kink = 1;
};
shapes = (
{
closed = 1;
nodes = (
(60,550,l),
(60,480,l),
(118,480,l),
(118,550,l),
(118,640,l),
(60,640,l)
);
}
);
width = 178;
},
{
associatedMasterId = m01;
layerId = "854F4A57-98FE-4ECA-97FF-E760947D7FDD";
name = Kink;
partSelection = {
kink = 2;
};
shapes = (
{
closed = 1;
nodes = (
(58,550,l),
(58,480,l),
(120,480,l),
(120,550,l),
(120,640,l),
(78,640,l)
);
}
);
visible = 1;
width = 178;
}
);
partsSettings = (
{
bottomValue = 0;
name = kink;
topValue = 100;
}
);
},
{
export = 0;
glyphname = _part.shoulder;
lastChange = "2025-12-24 17:10:41 +0000";
layers = (
{
anchors = (
{
name = connect;
pos = (217,0);
}
);
layerId = m01;
partSelection = {
Width = 2;
};
shapes = (
{
closed = 1;
nodes = (
(351,0,l),
(351,324,ls),
(351,346,o),
(345,361,o),
(331,379,cs),
(319,394,o),
(309,404,o),
(295,415,cs),
(278,429,o),
(262,435,o),
(240,435,cs),
(178,435,ls),
(133,435,o),
(122,431,o),
(97,409,cs),
(80,394,o),
(65,381,o),
(51,363,c),
(81,316,l),
(81,325,o),
(86,346,o),
(121,374,cs),
(130,381,o),
(138,383,o),
(148,383,cs),
(233,383,ls),
(243,383,o),
(251,380,o),
(260,374,cs),
(272,366,o),
(280,358,o),
(288,347,cs),
(294,338,o),
(297,331,o),
(297,320,cs),
(297,0,l)
);
}
);
width = 485;
},
{
anchors = (
{
name = connect;
pos = (217,0);
}
);
associatedMasterId = m01;
layerId = "E3C57E56-B921-40B9-ADB9-507FDA1609B1";
name = Width;
partSelection = {
Width = 1;
};
shapes = (
{
closed = 1;
nodes = (
(341,0,l),
(341,324,ls),
(341,346,o),
(335,361,o),
(321,379,cs),
(309,394,o),
(299,404,o),
(285,415,cs),
(268,429,o),
(252,435,o),
(230,435,cs),
(178,435,ls),
(133,435,o),
(122,431,o),
(97,409,cs),
(80,394,o),
(65,381,o),
(51,363,c),
(81,316,l),
(81,325,o),
(86,346,o),
(121,374,cs),
(130,381,o),
(138,383,o),
(148,383,cs),
(223,383,ls),
(233,383,o),
(241,380,o),
(250,374,cs),
(262,366,o),
(270,358,o),
(278,347,cs),
(284,338,o),
(287,331,o),
(287,320,cs),
(287,0,l)
);
}
);
visible = 1;
width = 485;
}
);
partsSettings = (
{
bottomValue = 290;
name = Width;
topValue = 300;
}
);
},
{
export = 0;
glyphname = _part.stem_down;
lastChange = "2025-12-24 22:59:04 +0000";
layers = (
{
hints = (
{
origin = (0,0);
target = (0,3);
type = Stem;
}
);
layerId = m01;
partSelection = {
kink = 1;
Height = 1;
};
shapes = (
{
closed = 1;
nodes = (
(47,65,l),
(47,0,l),
(101,0,l),
(101,65,l),
(101,430,l),
(47,430,l)
);
}
);
width = 485;
},
{
associatedMasterId = m01;
layerId = "4751D069-4A78-42C6-B1A9-0C9D7AB0FF7D";
name = Tall;
partSelection = {
kink = 1;
Height = 2;
};
shapes = (
{
closed = 1;
nodes = (
(47,65,l),
(47,0,l),
(101,0,l),
(101,65,l),
(101,530,l),
(47,530,l)
);
}
);
visible = 1;
width = 485;
},
{
associatedMasterId = m01;
layerId = "F3D3851F-7EC8-415F-9C32-3AB8E1108848";
name = Kink;
partSelection = {
kink = 2;
Height = 1;
};
shapes = (
{
closed = 1;
nodes = (
(47,65,l),
(39,0,l),
(93,0,l),
(101,65,l),
(101,430,l),
(47,430,l)
);
}
);
visible = 1;
width = 485;
}
);
partsSettings = (
{
bottomValue = 0;
name = kink;
topValue = 100;
},
{
bottomValue = 215;
name = Height;
topValue = 315;
}
);
},
